<svg xmlns="http://www.w3.org/2000/svg" 
version="1.1" xmlns:xlink="http://www.w3.org/1999/xlink" 
xmlns:svgjs="http://svgjs.dev/svgjs" width="308.7612359841165"
   height="304.915625"
    viewBox="0 0 2000 1500">
    <rect width="2000" height="1500" fill="#000000">
    </rect><g transform="matrix(0.3866976024748647,0,0,0.3866976024748647,613.4042057196539,250.40485829959516)"><svg viewBox="0 0 191 247" data-background-color="#000000" preserveAspectRatio="xMidYMid meet" height="2586" width="2000" xmlns="http://www.w3.org/2000/svg" xmlns:xlink="http://www.w3.org/1999/xlink"><g id="tight-bounds" transform="matrix(1,0,0,1,-0.025142857142839148,-0.09999999999999432)"><svg viewBox="0 0 191.0502857142857 247.2" height="247.2" width="191.0502857142857"><g><svg viewBox="0 0 191.0502857142857 247.2" height="247.2" width="191.0502857142857"><g><svg viewBox="0 0 191.0502857142857 247.2" height="247.2" width="191.0502857142857"><g id="textblocktransform"><svg viewBox="0 0 191.0502857142857 247.2" height="247.2" width="191.0502857142857" id="textblock"><g><svg viewBox="0 0 191.0502857142857 247.2" height="247.2" width="191.0502857142857"><g transform="matrix(1,0,0,1,0,0)"><svg width="191.0502857142857" viewBox="3.7 -35 27.05 35" height="247.2" data-palette-color="url(#2237d77a-c2a3-45ca-adfd-eeb4d7a6c248)"></svg></g></svg></g></svg></g></svg></g></svg></g><defs></defs><mask id="e932a2e1-cb8a-460b-984a-80fd00dd55fa"><g id="SvgjsG1223"><svg viewBox="0 0 191.0502857142857 247.2" height="247.2" width="191.0502857142857"><g><svg viewBox="0 0 191.0502857142857 247.2" height="247.2" width="191.0502857142857"><g><svg viewBox="0 0 191.0502857142857 247.2" height="247.2" width="191.0502857142857"><g id="SvgjsG1222"><svg viewBox="0 0 191.0502857142857 247.2" height="247.2" width="191.0502857142857" id="SvgjsSvg1221"><g><svg viewBox="0 0 191.0502857142857 247.2" height="247.2" width="191.0502857142857"><g transform="matrix(1,0,0,1,0,0)"><svg width="191.0502857142857" viewBox="3.7 -35 27.05 35" height="247.2" data-palette-color="url(#2237d77a-c2a3-45ca-adfd-eeb4d7a6c248)"><path d="M7.9 0L3.7 0 3.7-35 7.9-35 26.55-6.95 26.55-35 30.75-35 30.75 0 26.55 0 7.9-28.05 7.9 0Z" opacity="1" transform="matrix(1,0,0,1,0,0)" fill="white" class="wordmark-text-0" id="SvgjsPath1220"></path></svg></g></svg></g></svg></g></svg></g></svg></g><defs><mask></mask></defs></svg><rect width="191.0502857142857" height="247.2" fill="black" stroke="none" visibility="hidden"></rect></g></mask><linearGradient x1="0" x2="1" y1="0.5" y2="0.5" id="2237d77a-c2a3-45ca-adfd-eeb4d7a6c248"><stop stop-color="#f00b51" offset="0"></stop><stop stop-color="#730062" offset="1"></stop></linearGradient><rect width="191.0502857142857" height="247.2" fill="url(#2237d77a-c2a3-45ca-adfd-eeb4d7a6c248)" mask="url(#e932a2e1-cb8a-460b-984a-80fd00dd55fa)" data-fill-palette-color="primary"></rect></svg><rect width="191.0502857142857" height="247.2" fill="none" stroke="none" visibility="hidden"></rect></g></svg></g></svg>